<svg width="102" height="97" viewBox="0 0 102 97" fill="none" xmlns="http://www.w3.org/2000/svg">
<path d="M61.0891 32.6848L75.9327 21.1338L68.8161 41.9439L68.4776 42.9338L69.5094 42.7609L97.0179 38.1513L78.6155 55.1062L77.6668 55.9802L78.941 56.1811L98.6765 59.2918L80.1337 70.0916L79.4402 70.4955L80.0028 71.0679L98.7876 90.1802L72.1695 77.028L71.0623 76.4809L71.2792 77.6967L73.3107 89.0885L58.4202 78.4301L57.7885 77.978L57.4835 78.6924L53.9793 86.898L44.8228 76.7012L44.2805 76.0972L43.8365 76.7768L32.3438 94.368L31.6077 74.8716L31.5833 74.2265L30.9394 74.273L4.76339 76.1619L25.5974 63.4908L26.7314 62.8011L25.4768 62.3682L10.7558 57.2882L22.9232 50.646L23.6666 50.2401L23.0585 49.6506L3.54103 30.7278L30.7738 40.9188L31.6228 41.2365L31.6162 40.33L31.466 19.7253L44.3116 33.7661L44.9668 34.4822L45.346 33.5888L58.0781 3.59282L60.0838 32.2361L60.1656 33.4035L61.0891 32.6848Z" fill="#FFF466" stroke="black" stroke-width="1.24752"/>
</svg>
