<svg width="158" height="16" viewBox="0 0 158 16" fill="none" xmlns="http://www.w3.org/2000/svg">
<path d="M0.52 12.0105C0.402667 12.0105 0.306667 11.9732 0.232 11.8985C0.157333 11.8238 0.12 11.7278 0.12 11.6105V1.2105C0.12 1.09316 0.157333 0.997164 0.232 0.922498C0.306667 0.847831 0.402667 0.810497 0.52 0.810497H4.68C5.72533 0.810497 6.616 0.981164 7.352 1.3225C8.088 1.65316 8.65333 2.14383 9.048 2.7945C9.44267 3.4345 9.656 4.22916 9.688 5.1785C9.69867 5.64783 9.704 6.0585 9.704 6.4105C9.704 6.7625 9.69867 7.16783 9.688 7.6265C9.64533 8.6185 9.432 9.43983 9.048 10.0905C8.67467 10.7412 8.12533 11.2265 7.4 11.5465C6.68533 11.8558 5.80533 12.0105 4.76 12.0105H0.52ZM2.984 9.7065H4.68C5.13867 9.7065 5.51733 9.63716 5.816 9.4985C6.12533 9.34916 6.35467 9.11983 6.504 8.8105C6.664 8.50116 6.74933 8.09583 6.76 7.5945C6.78133 7.28516 6.792 7.00783 6.792 6.7625C6.80267 6.51716 6.80267 6.27183 6.792 6.0265C6.792 5.78116 6.78133 5.50916 6.76 5.2105C6.73867 4.48516 6.54667 3.95716 6.184 3.6265C5.832 3.28516 5.304 3.1145 4.6 3.1145H2.984V9.7065ZM15.2371 12.1705C13.9785 12.1705 12.9758 11.8292 12.2291 11.1465C11.4825 10.4638 11.0931 9.4505 11.0611 8.1065C11.0611 8.03183 11.0611 7.93583 11.0611 7.8185C11.0611 7.70116 11.0611 7.6105 11.0611 7.5465C11.0931 6.70383 11.2798 5.98383 11.6211 5.3865C11.9731 4.7785 12.4531 4.31983 13.0611 4.0105C13.6798 3.6905 14.3998 3.5305 15.2211 3.5305C16.1598 3.5305 16.9331 3.71716 17.5411 4.0905C18.1598 4.46383 18.6238 4.9705 18.9331 5.6105C19.2425 6.2505 19.3971 6.98116 19.3971 7.8025V8.1865C19.3971 8.30383 19.3545 8.39983 19.2691 8.4745C19.1945 8.54916 19.1038 8.5865 18.9971 8.5865H13.8771C13.8771 8.59716 13.8771 8.61316 13.8771 8.6345C13.8771 8.65583 13.8771 8.67716 13.8771 8.6985C13.8878 9.00783 13.9411 9.2905 14.0371 9.5465C14.1331 9.8025 14.2825 10.0052 14.4851 10.1545C14.6878 10.3038 14.9331 10.3785 15.2211 10.3785C15.4345 10.3785 15.6105 10.3465 15.7491 10.2825C15.8985 10.2078 16.0211 10.1278 16.1171 10.0425C16.2131 9.9465 16.2878 9.8665 16.3411 9.8025C16.4371 9.69583 16.5118 9.63183 16.5651 9.6105C16.6291 9.5785 16.7251 9.5625 16.8531 9.5625H18.8371C18.9438 9.5625 19.0291 9.5945 19.0931 9.6585C19.1678 9.71183 19.1998 9.79183 19.1891 9.8985C19.1785 10.0798 19.0878 10.2985 18.9171 10.5545C18.7465 10.8105 18.4958 11.0665 18.1651 11.3225C17.8451 11.5678 17.4398 11.7705 16.9491 11.9305C16.4585 12.0905 15.8878 12.1705 15.2371 12.1705ZM13.8771 7.0025H16.5811V6.9705C16.5811 6.62916 16.5278 6.3305 16.4211 6.0745C16.3251 5.8185 16.1705 5.62116 15.9571 5.4825C15.7545 5.34383 15.5091 5.2745 15.2211 5.2745C14.9331 5.2745 14.6878 5.34383 14.4851 5.4825C14.2931 5.62116 14.1438 5.8185 14.0371 6.0745C13.9305 6.3305 13.8771 6.62916 13.8771 6.9705V7.0025ZM24.9771 15.5305C24.1558 15.5305 23.4731 15.4238 22.9291 15.2105C22.3958 14.9972 21.9691 14.7412 21.6491 14.4425C21.3398 14.1438 21.1158 13.8452 20.9771 13.5465C20.8385 13.2585 20.7638 13.0292 20.7531 12.8585C20.7425 12.7412 20.7798 12.6452 20.8651 12.5705C20.9505 12.4958 21.0518 12.4585 21.1691 12.4585H23.2011C23.2971 12.4585 23.3771 12.4798 23.4411 12.5225C23.5158 12.5758 23.5745 12.6612 23.6171 12.7785C23.6705 12.8958 23.7398 13.0185 23.8251 13.1465C23.9211 13.2745 24.0491 13.3758 24.2091 13.4505C24.3798 13.5358 24.6091 13.5785 24.8971 13.5785C25.2171 13.5785 25.4838 13.5252 25.6971 13.4185C25.9105 13.3225 26.0705 13.1572 26.1771 12.9225C26.2838 12.6985 26.3371 12.3945 26.3371 12.0105V10.9385C26.0918 11.2052 25.7771 11.4238 25.3931 11.5945C25.0091 11.7545 24.5451 11.8345 24.0011 11.8345C23.4571 11.8345 22.9771 11.7545 22.5611 11.5945C22.1451 11.4345 21.7985 11.1945 21.5211 10.8745C21.2438 10.5545 21.0251 10.1652 20.8651 9.7065C20.7158 9.24783 20.6251 8.71983 20.5931 8.1225C20.5825 7.84516 20.5825 7.56783 20.5931 7.2905C20.6251 6.7145 20.7158 6.19716 20.8651 5.7385C21.0145 5.27983 21.2278 4.88516 21.5051 4.5545C21.7931 4.22383 22.1451 3.97316 22.5611 3.8025C22.9771 3.62116 23.4571 3.5305 24.0011 3.5305C24.5771 3.5305 25.0678 3.6425 25.4731 3.8665C25.8891 4.07983 26.2305 4.35183 26.4971 4.6825V4.0905C26.4971 3.98383 26.5345 3.89316 26.6091 3.8185C26.6838 3.73316 26.7798 3.6905 26.8971 3.6905H28.7371C28.8545 3.6905 28.9505 3.73316 29.0251 3.8185C29.1105 3.89316 29.1531 3.98383 29.1531 4.0905V11.7865C29.1531 12.5972 28.9878 13.2798 28.6571 13.8345C28.3265 14.3892 27.8518 14.8105 27.2331 15.0985C26.6145 15.3865 25.8625 15.5305 24.9771 15.5305ZM24.8651 9.7545C25.2065 9.7545 25.4838 9.67983 25.6971 9.5305C25.9105 9.38116 26.0651 9.18916 26.1611 8.9545C26.2678 8.71983 26.3265 8.46916 26.3371 8.2025C26.3478 8.08516 26.3531 7.91983 26.3531 7.7065C26.3531 7.49316 26.3478 7.33316 26.3371 7.2265C26.3265 6.94916 26.2678 6.69316 26.1611 6.4585C26.0651 6.22383 25.9105 6.03716 25.6971 5.8985C25.4838 5.74916 25.2065 5.6745 24.8651 5.6745C24.5131 5.6745 24.2305 5.74916 24.0171 5.8985C23.8145 6.04783 23.6651 6.2505 23.5691 6.5065C23.4838 6.7625 23.4305 7.04516 23.4091 7.3545C23.3985 7.58916 23.3985 7.82916 23.4091 8.0745C23.4305 8.38383 23.4838 8.6665 23.5691 8.9225C23.6651 9.1785 23.8145 9.38116 24.0171 9.5305C24.2305 9.67983 24.5131 9.7545 24.8651 9.7545ZM34.8778 12.1705C33.6191 12.1705 32.6164 11.8292 31.8698 11.1465C31.1231 10.4638 30.7338 9.4505 30.7018 8.1065C30.7018 8.03183 30.7018 7.93583 30.7018 7.8185C30.7018 7.70116 30.7018 7.6105 30.7018 7.5465C30.7338 6.70383 30.9204 5.98383 31.2618 5.3865C31.6138 4.7785 32.0938 4.31983 32.7018 4.0105C33.3204 3.6905 34.0404 3.5305 34.8618 3.5305C35.8004 3.5305 36.5738 3.71716 37.1818 4.0905C37.8004 4.46383 38.2644 4.9705 38.5738 5.6105C38.8831 6.2505 39.0378 6.98116 39.0378 7.8025V8.1865C39.0378 8.30383 38.9951 8.39983 38.9097 8.4745C38.8351 8.54916 38.7444 8.5865 38.6378 8.5865H33.5178C33.5178 8.59716 33.5178 8.61316 33.5178 8.6345C33.5178 8.65583 33.5178 8.67716 33.5178 8.6985C33.5284 9.00783 33.5818 9.2905 33.6778 9.5465C33.7738 9.8025 33.9231 10.0052 34.1258 10.1545C34.3284 10.3038 34.5738 10.3785 34.8618 10.3785C35.0751 10.3785 35.2511 10.3465 35.3898 10.2825C35.5391 10.2078 35.6618 10.1278 35.7578 10.0425C35.8538 9.9465 35.9284 9.8665 35.9818 9.8025C36.0778 9.69583 36.1524 9.63183 36.2058 9.6105C36.2698 9.5785 36.3658 9.5625 36.4938 9.5625H38.4778C38.5844 9.5625 38.6698 9.5945 38.7338 9.6585C38.8084 9.71183 38.8404 9.79183 38.8298 9.8985C38.8191 10.0798 38.7284 10.2985 38.5578 10.5545C38.3871 10.8105 38.1364 11.0665 37.8058 11.3225C37.4858 11.5678 37.0804 11.7705 36.5898 11.9305C36.0991 12.0905 35.5284 12.1705 34.8778 12.1705ZM33.5178 7.0025H36.2218V6.9705C36.2218 6.62916 36.1684 6.3305 36.0618 6.0745C35.9658 5.8185 35.8111 5.62116 35.5978 5.4825C35.3951 5.34383 35.1498 5.2745 34.8618 5.2745C34.5738 5.2745 34.3284 5.34383 34.1258 5.4825C33.9338 5.62116 33.7844 5.8185 33.6778 6.0745C33.5711 6.3305 33.5178 6.62916 33.5178 6.9705V7.0025ZM40.9378 12.0105C40.8204 12.0105 40.7244 11.9732 40.6497 11.8985C40.5751 11.8238 40.5378 11.7278 40.5378 11.6105V4.0905C40.5378 3.97316 40.5751 3.87716 40.6497 3.8025C40.7244 3.72783 40.8204 3.6905 40.9378 3.6905H42.7778C42.8951 3.6905 42.9911 3.72783 43.0658 3.8025C43.1404 3.87716 43.1778 3.97316 43.1778 4.0905V4.6985C43.4551 4.36783 43.8178 4.0905 44.2658 3.8665C44.7138 3.6425 45.2418 3.5305 45.8498 3.5305C46.4684 3.5305 47.0124 3.66916 47.4818 3.9465C47.9618 4.22383 48.3351 4.6345 48.6018 5.1785C48.8791 5.71183 49.0178 6.36783 49.0178 7.1465V11.6105C49.0178 11.7278 48.9751 11.8238 48.8898 11.8985C48.8151 11.9732 48.7244 12.0105 48.6178 12.0105H46.6018C46.4951 12.0105 46.3991 11.9732 46.3138 11.8985C46.2391 11.8238 46.2018 11.7278 46.2018 11.6105V7.2425C46.2018 6.74116 46.0791 6.35716 45.8338 6.0905C45.5991 5.81316 45.2471 5.6745 44.7778 5.6745C44.3404 5.6745 43.9884 5.81316 43.7218 6.0905C43.4658 6.35716 43.3378 6.74116 43.3378 7.2425V11.6105C43.3378 11.7278 43.2951 11.8238 43.2098 11.8985C43.1351 11.9732 43.0444 12.0105 42.9378 12.0105H40.9378ZM58.9776 12.1705C57.9643 12.1705 57.095 12.0052 56.3696 11.6745C55.655 11.3438 55.095 10.8585 54.6896 10.2185C54.295 9.5785 54.0763 8.78383 54.0336 7.8345C54.023 7.39716 54.0176 6.92783 54.0176 6.4265C54.0176 5.92516 54.023 5.44516 54.0336 4.9865C54.0763 4.0585 54.3003 3.2745 54.7056 2.6345C55.111 1.98383 55.6763 1.49316 56.4016 1.1625C57.127 0.821164 57.9856 0.650497 58.9776 0.650497C59.6816 0.650497 60.3323 0.741164 60.9296 0.922498C61.527 1.09316 62.0496 1.34916 62.4976 1.6905C62.9456 2.02116 63.2923 2.4265 63.5376 2.9065C63.7936 3.37583 63.927 3.90916 63.9376 4.5065C63.9483 4.6025 63.9163 4.6825 63.8416 4.7465C63.7776 4.8105 63.6976 4.8425 63.6016 4.8425H61.4416C61.303 4.8425 61.1963 4.81583 61.1216 4.7625C61.047 4.6985 60.983 4.5865 60.9296 4.4265C60.7803 3.86116 60.535 3.47716 60.1936 3.2745C59.863 3.06116 59.4523 2.9545 58.9616 2.9545C58.375 2.9545 57.911 3.11983 57.5696 3.4505C57.2283 3.7705 57.0416 4.30916 57.0096 5.0665C56.9776 5.94116 56.9776 6.83716 57.0096 7.7545C57.0416 8.51183 57.2283 9.05583 57.5696 9.3865C57.911 9.7065 58.375 9.8665 58.9616 9.8665C59.4523 9.8665 59.8683 9.75983 60.2096 9.5465C60.551 9.33316 60.791 8.94916 60.9296 8.3945C60.9723 8.2345 61.031 8.12783 61.1056 8.0745C61.191 8.0105 61.303 7.9785 61.4416 7.9785H63.6016C63.6976 7.9785 63.7776 8.0105 63.8416 8.0745C63.9163 8.1385 63.9483 8.2185 63.9376 8.3145C63.927 8.91183 63.7936 9.4505 63.5376 9.9305C63.2923 10.3998 62.9456 10.8052 62.4976 11.1465C62.0496 11.4772 61.527 11.7332 60.9296 11.9145C60.3323 12.0852 59.6816 12.1705 58.9776 12.1705ZM67.94 12.1705C67.364 12.1705 66.8467 12.0638 66.388 11.8505C65.94 11.6265 65.5827 11.3278 65.316 10.9545C65.0493 10.5812 64.916 10.1598 64.916 9.6905C64.916 8.93316 65.2253 8.33583 65.844 7.8985C66.4627 7.4505 67.284 7.1465 68.308 6.9865L70.308 6.6825V6.4585C70.308 6.0745 70.228 5.78116 70.068 5.5785C69.908 5.37583 69.6147 5.2745 69.188 5.2745C68.8893 5.2745 68.644 5.33316 68.452 5.4505C68.2707 5.56783 68.1267 5.72783 68.02 5.9305C67.924 6.06916 67.7907 6.1385 67.62 6.1385H65.828C65.7107 6.1385 65.62 6.1065 65.556 6.0425C65.492 5.96783 65.4653 5.8825 65.476 5.7865C65.476 5.5945 65.5453 5.37583 65.684 5.1305C65.8333 4.8745 66.0573 4.62383 66.356 4.3785C66.6547 4.13316 67.0387 3.9305 67.508 3.7705C67.9773 3.6105 68.5427 3.5305 69.204 3.5305C69.8973 3.5305 70.4893 3.6105 70.98 3.7705C71.4707 3.9305 71.8653 4.1545 72.164 4.4425C72.4733 4.7305 72.7027 5.07183 72.852 5.4665C73.0013 5.8505 73.076 6.27716 73.076 6.7465V11.6105C73.076 11.7278 73.0333 11.8238 72.948 11.8985C72.8733 11.9732 72.7827 12.0105 72.676 12.0105H70.82C70.7027 12.0105 70.6067 11.9732 70.532 11.8985C70.4573 11.8238 70.42 11.7278 70.42 11.6105V11.0505C70.2813 11.2532 70.0947 11.4398 69.86 11.6105C69.6253 11.7812 69.348 11.9145 69.028 12.0105C68.7187 12.1172 68.356 12.1705 67.94 12.1705ZM68.692 10.3465C69.0013 10.3465 69.2787 10.2825 69.524 10.1545C69.78 10.0158 69.9773 9.80783 70.116 9.5305C70.2653 9.2425 70.34 8.88516 70.34 8.4585V8.2345L68.98 8.4745C68.4787 8.55983 68.1107 8.69316 67.876 8.8745C67.652 9.04516 67.54 9.24783 67.54 9.4825C67.54 9.66383 67.5933 9.8185 67.7 9.9465C67.8067 10.0745 67.9453 10.1758 68.116 10.2505C68.2867 10.3145 68.4787 10.3465 68.692 10.3465ZM75.2815 12.0105C75.1642 12.0105 75.0682 11.9732 74.9935 11.8985C74.9188 11.8238 74.8815 11.7278 74.8815 11.6105V4.0905C74.8815 3.98383 74.9188 3.89316 74.9935 3.8185C75.0682 3.73316 75.1642 3.6905 75.2815 3.6905H77.1215C77.2388 3.6905 77.3348 3.73316 77.4095 3.8185C77.4842 3.89316 77.5215 3.98383 77.5215 4.0905V4.7305C77.8095 4.39983 78.1508 4.14383 78.5455 3.9625C78.9508 3.78116 79.4042 3.6905 79.9055 3.6905H80.6095C80.7162 3.6905 80.8068 3.72783 80.8815 3.8025C80.9668 3.87716 81.0095 3.97316 81.0095 4.0905V5.7385C81.0095 5.84516 80.9668 5.94116 80.8815 6.0265C80.8068 6.10116 80.7162 6.1385 80.6095 6.1385H79.0575C78.6202 6.1385 78.2788 6.26116 78.0335 6.5065C77.7988 6.74116 77.6815 7.07716 77.6815 7.5145V11.6105C77.6815 11.7278 77.6388 11.8238 77.5535 11.8985C77.4788 11.9732 77.3828 12.0105 77.2655 12.0105H75.2815ZM85.173 12.1705C84.661 12.1705 84.197 12.0905 83.781 11.9305C83.3757 11.7598 83.0237 11.5145 82.725 11.1945C82.437 10.8638 82.213 10.4692 82.053 10.0105C81.893 9.54116 81.8023 9.00783 81.781 8.4105C81.7703 8.19716 81.765 8.0105 81.765 7.8505C81.765 7.67983 81.7703 7.49316 81.781 7.2905C81.8023 6.7145 81.893 6.19716 82.053 5.7385C82.213 5.27983 82.437 4.88516 82.725 4.5545C83.013 4.22383 83.365 3.97316 83.781 3.8025C84.197 3.62116 84.661 3.5305 85.173 3.5305C85.7063 3.5305 86.165 3.62116 86.549 3.8025C86.933 3.97316 87.2583 4.19716 87.525 4.4745V1.0505C87.525 0.933164 87.5623 0.837164 87.637 0.762498C87.7117 0.687831 87.8077 0.650497 87.925 0.650497H89.877C89.9837 0.650497 90.0743 0.687831 90.149 0.762498C90.2343 0.837164 90.277 0.933164 90.277 1.0505V11.6105C90.277 11.7278 90.2343 11.8238 90.149 11.8985C90.0743 11.9732 89.9837 12.0105 89.877 12.0105H88.069C87.9517 12.0105 87.8557 11.9732 87.781 11.8985C87.7063 11.8238 87.669 11.7278 87.669 11.6105V11.0985C87.413 11.4078 87.0823 11.6638 86.677 11.8665C86.2717 12.0692 85.7703 12.1705 85.173 12.1705ZM86.037 10.0265C86.3997 10.0265 86.6823 9.95183 86.885 9.8025C87.0983 9.6425 87.253 9.43983 87.349 9.1945C87.4557 8.94916 87.5143 8.6825 87.525 8.3945C87.5357 8.18116 87.541 7.9785 87.541 7.7865C87.541 7.5945 87.5357 7.39716 87.525 7.1945C87.5143 6.92783 87.4557 6.6825 87.349 6.4585C87.2423 6.22383 87.0823 6.03716 86.869 5.8985C86.6557 5.74916 86.3783 5.6745 86.037 5.6745C85.685 5.6745 85.4023 5.74916 85.189 5.8985C84.9863 6.04783 84.8423 6.2505 84.757 6.5065C84.6717 6.7625 84.6183 7.04516 84.597 7.3545C84.565 7.68516 84.565 8.01583 84.597 8.3465C84.6183 8.65583 84.6717 8.9385 84.757 9.1945C84.8423 9.4505 84.9863 9.65316 85.189 9.8025C85.4023 9.95183 85.685 10.0265 86.037 10.0265ZM95.233 12.0105C95.137 12.0105 95.0517 11.9785 94.977 11.9145C94.913 11.8398 94.881 11.7545 94.881 11.6585C94.881 11.6265 94.8863 11.5892 94.897 11.5465C94.9077 11.4932 94.929 11.4452 94.961 11.4025L97.633 7.7385L95.201 4.2985C95.169 4.25583 95.1423 4.21316 95.121 4.1705C95.1103 4.12783 95.105 4.08516 95.105 4.0425C95.105 3.9465 95.1423 3.8665 95.217 3.8025C95.2917 3.72783 95.377 3.6905 95.473 3.6905H97.425C97.5637 3.6905 97.665 3.7225 97.729 3.7865C97.8037 3.8505 97.857 3.90916 97.889 3.9625L99.377 6.0265L100.849 3.9785C100.892 3.92516 100.945 3.8665 101.009 3.8025C101.084 3.72783 101.19 3.6905 101.329 3.6905H103.201C103.297 3.6905 103.377 3.72783 103.441 3.8025C103.516 3.8665 103.553 3.9465 103.553 4.0425C103.553 4.08516 103.548 4.12783 103.537 4.1705C103.526 4.21316 103.505 4.25583 103.473 4.2985L100.977 7.7385L103.681 11.4025C103.724 11.4452 103.75 11.4878 103.761 11.5305C103.772 11.5732 103.777 11.6158 103.777 11.6585C103.777 11.7545 103.74 11.8398 103.665 11.9145C103.601 11.9785 103.516 12.0105 103.409 12.0105H101.377C101.249 12.0105 101.153 11.9838 101.089 11.9305C101.025 11.8665 100.972 11.8078 100.929 11.7545L99.313 9.5625L97.681 11.7545C97.6383 11.7972 97.585 11.8505 97.521 11.9145C97.457 11.9785 97.3557 12.0105 97.217 12.0105H95.233ZM113.15 12.1705C112.136 12.1705 111.267 12.0052 110.542 11.6745C109.827 11.3438 109.267 10.8585 108.862 10.2185C108.467 9.5785 108.248 8.78383 108.206 7.8345C108.195 7.39716 108.19 6.92783 108.19 6.4265C108.19 5.92516 108.195 5.44516 108.206 4.9865C108.248 4.0585 108.472 3.2745 108.878 2.6345C109.283 1.98383 109.848 1.49316 110.574 1.1625C111.299 0.821164 112.158 0.650497 113.15 0.650497C113.854 0.650497 114.504 0.741164 115.102 0.922498C115.699 1.09316 116.222 1.34916 116.67 1.6905C117.118 2.02116 117.464 2.4265 117.71 2.9065C117.966 3.37583 118.099 3.90916 118.11 4.5065C118.12 4.6025 118.088 4.6825 118.014 4.7465C117.95 4.8105 117.87 4.8425 117.774 4.8425H115.614C115.475 4.8425 115.368 4.81583 115.294 4.7625C115.219 4.6985 115.155 4.5865 115.102 4.4265C114.952 3.86116 114.707 3.47716 114.366 3.2745C114.035 3.06116 113.624 2.9545 113.134 2.9545C112.547 2.9545 112.083 3.11983 111.742 3.4505C111.4 3.7705 111.214 4.30916 111.182 5.0665C111.15 5.94116 111.15 6.83716 111.182 7.7545C111.214 8.51183 111.4 9.05583 111.742 9.3865C112.083 9.7065 112.547 9.8665 113.134 9.8665C113.624 9.8665 114.04 9.75983 114.382 9.5465C114.723 9.33316 114.963 8.94916 115.102 8.3945C115.144 8.2345 115.203 8.12783 115.278 8.0745C115.363 8.0105 115.475 7.9785 115.614 7.9785H117.774C117.87 7.9785 117.95 8.0105 118.014 8.0745C118.088 8.1385 118.12 8.2185 118.11 8.3145C118.099 8.91183 117.966 9.4505 117.71 9.9305C117.464 10.3998 117.118 10.8052 116.67 11.1465C116.222 11.4772 115.699 11.7332 115.102 11.9145C114.504 12.0852 113.854 12.1705 113.15 12.1705ZM124.48 12.1705C123.52 12.1705 122.677 12.0158 121.952 11.7065C121.237 11.3865 120.683 10.9012 120.288 10.2505C119.893 9.58916 119.696 8.75183 119.696 7.7385V1.2105C119.696 1.09316 119.733 0.997164 119.808 0.922498C119.883 0.847831 119.979 0.810497 120.096 0.810497H122.16C122.277 0.810497 122.373 0.847831 122.448 0.922498C122.523 0.997164 122.56 1.09316 122.56 1.2105V7.7225C122.56 8.41583 122.725 8.9385 123.056 9.2905C123.397 9.63183 123.872 9.8025 124.48 9.8025C125.077 9.8025 125.541 9.63183 125.872 9.2905C126.213 8.9385 126.384 8.41583 126.384 7.7225V1.2105C126.384 1.09316 126.421 0.997164 126.496 0.922498C126.581 0.847831 126.677 0.810497 126.784 0.810497H128.864C128.971 0.810497 129.061 0.847831 129.136 0.922498C129.221 0.997164 129.264 1.09316 129.264 1.2105V7.7385C129.264 8.75183 129.067 9.58916 128.672 10.2505C128.277 10.9012 127.723 11.3865 127.008 11.7065C126.293 12.0158 125.451 12.1705 124.48 12.1705ZM131.786 12.0105C131.668 12.0105 131.572 11.9732 131.498 11.8985C131.423 11.8238 131.386 11.7278 131.386 11.6105V1.2105C131.386 1.09316 131.423 0.997164 131.498 0.922498C131.572 0.847831 131.668 0.810497 131.786 0.810497H135.946C136.991 0.810497 137.882 0.981164 138.618 1.3225C139.354 1.65316 139.919 2.14383 140.314 2.7945C140.708 3.4345 140.922 4.22916 140.954 5.1785C140.964 5.64783 140.97 6.0585 140.97 6.4105C140.97 6.7625 140.964 7.16783 140.954 7.6265C140.911 8.6185 140.698 9.43983 140.314 10.0905C139.94 10.7412 139.391 11.2265 138.666 11.5465C137.951 11.8558 137.071 12.0105 136.026 12.0105H131.786ZM134.25 9.7065H135.946C136.404 9.7065 136.783 9.63716 137.082 9.4985C137.391 9.34916 137.62 9.11983 137.77 8.8105C137.93 8.50116 138.015 8.09583 138.026 7.5945C138.047 7.28516 138.058 7.00783 138.058 6.7625C138.068 6.51716 138.068 6.27183 138.058 6.0265C138.058 5.78116 138.047 5.50916 138.026 5.2105C138.004 4.48516 137.812 3.95716 137.45 3.6265C137.098 3.28516 136.57 3.1145 135.866 3.1145H134.25V9.7065ZM143.239 12.0105C143.121 12.0105 143.025 11.9732 142.951 11.8985C142.876 11.8238 142.839 11.7278 142.839 11.6105V1.2105C142.839 1.09316 142.876 0.997164 142.951 0.922498C143.025 0.847831 143.121 0.810497 143.239 0.810497H145.383C145.5 0.810497 145.596 0.847831 145.671 0.922498C145.745 0.997164 145.783 1.09316 145.783 1.2105V11.6105C145.783 11.7278 145.745 11.8238 145.671 11.8985C145.596 11.9732 145.5 12.0105 145.383 12.0105H143.239ZM152.202 12.1705C151.136 12.1705 150.25 12.0212 149.546 11.7225C148.842 11.4132 148.309 11.0132 147.946 10.5225C147.584 10.0318 147.392 9.50916 147.37 8.9545C147.37 8.86916 147.402 8.7945 147.466 8.7305C147.541 8.65583 147.626 8.6185 147.722 8.6185H149.738C149.888 8.6185 150 8.64516 150.074 8.6985C150.16 8.75183 150.234 8.82116 150.298 8.9065C150.384 9.0665 150.501 9.22116 150.65 9.3705C150.81 9.51983 151.013 9.6425 151.258 9.7385C151.514 9.82383 151.829 9.8665 152.202 9.8665C152.821 9.8665 153.285 9.7705 153.594 9.5785C153.914 9.3865 154.074 9.12516 154.074 8.7945C154.074 8.55983 153.989 8.36783 153.818 8.2185C153.648 8.0585 153.37 7.91983 152.986 7.8025C152.613 7.6745 152.112 7.5465 151.482 7.4185C150.672 7.24783 149.978 7.02916 149.402 6.7625C148.837 6.48516 148.405 6.12783 148.106 5.6905C147.808 5.2425 147.658 4.68783 147.658 4.0265C147.658 3.37583 147.84 2.7945 148.202 2.2825C148.576 1.7705 149.093 1.3705 149.754 1.0825C150.416 0.794497 151.2 0.650497 152.106 0.650497C152.842 0.650497 153.488 0.746497 154.042 0.938498C154.608 1.1305 155.082 1.3865 155.466 1.7065C155.85 2.0265 156.138 2.36783 156.33 2.7305C156.533 3.0825 156.64 3.42916 156.65 3.7705C156.65 3.85583 156.618 3.93583 156.554 4.0105C156.49 4.0745 156.41 4.1065 156.314 4.1065H154.202C154.085 4.1065 153.984 4.08516 153.898 4.0425C153.813 3.99983 153.738 3.9305 153.674 3.8345C153.61 3.59983 153.44 3.39716 153.162 3.2265C152.896 3.04516 152.544 2.9545 152.106 2.9545C151.637 2.9545 151.269 3.03983 151.002 3.2105C150.746 3.3705 150.618 3.62116 150.618 3.9625C150.618 4.17583 150.688 4.3625 150.826 4.5225C150.976 4.6825 151.216 4.82116 151.546 4.9385C151.888 5.05583 152.352 5.1785 152.938 5.3065C153.909 5.48783 154.693 5.71716 155.29 5.9945C155.888 6.26116 156.325 6.61316 156.602 7.0505C156.88 7.47716 157.018 8.01583 157.018 8.6665C157.018 9.39183 156.81 10.0212 156.394 10.5545C155.989 11.0772 155.424 11.4772 154.698 11.7545C153.973 12.0318 153.141 12.1705 152.202 12.1705Z" fill="#2450B7"/>
</svg>
