<svg width="290" height="148" viewBox="0 0 290 148" fill="none" xmlns="http://www.w3.org/2000/svg">
<path d="M45.3512 8.7481C45.529 7.47315 45.8351 6.38454 46.2598 5.49208C46.8623 4.13867 47.682 3.11872 48.7091 2.43221C49.5979 1.7555 50.6053 1.28476 51.7114 1.01996C52.3139 0.814005 52.9558 0.647282 53.6472 0.509979C54.3286 0.353062 55.0496 0.254991 55.8199 0.196146C56.373 0.117687 56.9458 0.0686516 57.5581 0.0392291C58.1902 0.0196158 58.842 0 59.5333 0H64.4319C63.3455 1.01996 62.5357 1.72608 61.9826 2.11837C61.716 2.41259 61.4789 2.65778 61.2715 2.86373C61.0543 3.05007 60.8864 3.24621 60.758 3.45216C60.4617 3.79542 60.2247 4.23675 60.0469 4.78596C60.0469 5.12921 59.9383 5.70784 59.7309 6.51204L57.8741 20.9091L53.3311 53.2732L52.8176 57.0392C52.6299 58.8241 52.4324 60.3246 52.225 61.5505C52.0077 62.7568 51.8398 63.6689 51.7114 64.2966C51.2868 66.4738 50.7041 68.043 49.9732 69.0041C49.0745 70.2104 47.2869 70.9557 44.6006 71.2401C43.9093 71.299 42.8822 71.348 41.5193 71.397C40.1465 71.4265 38.4379 71.4363 36.3837 71.4363H13.2735C11.5551 71.4363 10.1132 71.4265 8.92803 71.397C7.76264 71.348 6.88366 71.3186 6.28122 71.3186C3.12086 71.1421 1.19501 70.328 0.513559 68.8864C0.167894 68.0822 0 67.0818 0 65.905C0 65.5715 0.0098755 65.2577 0.0395045 64.9635C0.0888846 64.6496 0.118514 64.326 0.118514 63.9827C0.246903 62.7078 0.553064 60.3933 1.02712 57.0392C1.23452 55.6858 1.47154 54.0381 1.7382 52.0963C2.02461 50.1643 2.34064 47.9282 2.68631 45.3881C3.08135 42.8284 3.39739 40.71 3.63442 39.033C3.87144 37.3658 4.02946 36.081 4.10847 35.1885C4.66154 31.1872 5.06646 28.6177 5.33311 27.4604C5.88618 25.1361 6.60713 23.5669 7.50586 22.7529C8.3157 21.9487 9.64898 21.4387 11.4958 21.223C12.9377 21.017 15.545 20.9091 19.3177 20.9091H43.2575L45.3512 8.7481ZM22.9126 35.1885C22.6954 35.1885 22.4188 35.1885 22.083 35.1885C21.7374 35.1885 21.3028 35.2278 20.7794 35.3062C20.2757 35.3062 19.9597 35.3357 19.8313 35.3847C19.614 35.3847 19.377 35.5318 19.1202 35.8162C18.9029 36.032 18.6955 36.4341 18.4881 37.0323C18.4881 37.3265 18.3894 37.9738 18.2116 38.9938L15.6438 57.0392H36.3047C37.0355 56.9117 37.5096 56.7155 37.7268 56.4507C37.9342 56.2448 38.1021 55.8917 38.2404 55.3916C38.3688 55.215 38.4577 54.9404 38.5169 54.5677C38.5959 54.1754 38.6749 53.7439 38.7539 53.2732L41.2032 35.1885H22.9126Z" fill="#EE3EC9"/>
<path d="M80.1905 20.9091H102.59C104.427 20.9091 105.967 20.9091 107.212 20.9091C108.446 20.9091 109.365 20.9483 109.977 21.0267C112.239 21.0856 113.789 21.4877 114.638 22.2428C115.587 22.9294 116.061 24.322 116.061 26.4404C116.061 26.7052 116.061 27.0288 116.061 27.4211C116.061 27.7938 116.021 28.1665 115.942 28.5587C115.883 29.1864 115.784 30.0494 115.626 31.1479C115.488 32.2267 115.33 33.5703 115.152 35.1885L114.52 38.9937C113.967 43.1324 113.513 45.849 113.177 47.1534C112.752 49.0658 112.11 50.4486 111.241 51.3116C110.263 52.2041 108.792 52.7925 106.817 53.077C105.493 53.2633 103.024 53.3516 99.3897 53.3516H76.2796C76.0129 53.3516 75.7364 53.4987 75.45 53.7831C75.3117 53.9204 75.1833 54.3225 75.0549 54.9992C75.0549 55.3424 74.9463 56.0191 74.7389 57.0391H97.3355C101.385 57.0391 103.972 57.147 105.078 57.3529C106.708 57.5687 107.824 58.0787 108.436 58.8829C109.197 59.6478 109.641 61.1385 109.779 63.355C109.908 63.9827 109.977 64.8359 109.977 65.9049C109.977 66.9543 109.977 68.2194 109.977 69.7101V71.4362H71.144C69.0898 71.4362 67.3911 71.3872 66.0479 71.2793C64.7048 71.1812 63.6579 71.1028 62.927 71.0439C61.4753 70.632 60.4481 69.9749 59.8457 69.0825C59.421 68.2783 59.2136 67.2191 59.2136 65.9049V65.1203C59.2926 63.8944 59.5889 61.1974 60.1222 57.0391L63.2036 35.1885L64.4677 27.8526C64.9418 25.4793 65.6529 23.8022 66.601 22.8313C67.7071 21.8898 69.149 21.321 70.9465 21.1052C71.6773 20.9777 72.8131 20.9091 74.3439 20.9091C75.8944 20.9091 77.84 20.9091 80.1905 20.9091ZM80.3881 35.1885C79.3609 35.1885 78.7782 35.2277 78.6499 35.3062C78.5116 35.365 78.3042 35.5317 78.0178 35.8161C77.8795 36.0809 77.7511 36.385 77.6227 36.7184C77.6227 37.0126 77.5141 37.7678 77.3067 38.9937H98.5996C99.1231 38.9152 99.528 38.7485 99.8243 38.4837C100.032 38.2778 100.14 37.9639 100.14 37.5422C100.269 37.0715 100.358 36.2869 100.417 35.1885H80.3881Z" fill="#EE3EC9"/>
<path d="M120.385 35.1885C120.721 33.1485 121.017 31.4813 121.254 30.1671C121.491 28.8333 121.649 27.8526 121.728 27.2249C122.331 25.0575 123.042 23.5668 123.862 22.7528C124.968 21.7917 126.587 21.2131 128.721 21.0267C129.451 20.8698 130.508 20.7914 131.881 20.7914C133.244 20.7914 134.962 20.7914 137.017 20.7914H159.653C161.44 20.7914 162.932 20.7914 164.117 20.7914C165.322 20.7914 166.191 20.8698 166.724 21.0267C167.277 21.0267 167.791 21.066 168.265 21.1444C168.758 21.2033 169.144 21.2915 169.41 21.419C170.437 21.6348 171.119 21.9682 171.465 22.439C172.274 23.047 172.729 24.1062 172.808 25.6166V29.5787C172.808 30.0494 172.748 30.7752 172.65 31.7363C172.541 32.6778 172.422 33.8351 172.294 35.1885L170.437 47.9772L169.213 57.0391L167.159 71.3185L166.21 77.9875C166.023 79.7332 165.825 81.2239 165.618 82.4596C165.401 83.6855 165.233 84.6662 165.104 85.4018C164.68 87.4613 163.998 89.0305 163.05 90.1093C162.23 91.0704 160.927 91.6882 159.139 91.953C158.448 92.0315 157.302 92.11 155.702 92.1884C154.092 92.2865 152.048 92.3453 149.579 92.3453H112.366C112.84 90.1681 113.255 88.3636 113.59 86.9317C113.936 85.5195 114.213 84.4701 114.42 83.7934C115.19 81.5377 116.168 80.0372 117.383 79.282C118.222 78.7524 119.565 78.3896 121.412 78.1836C122.094 78.0463 123.002 77.9875 124.138 77.9875C125.264 77.9875 126.587 77.9875 128.089 77.9875H145.866C146.833 77.9875 147.624 77.958 148.236 77.909C148.838 77.8796 149.283 77.8698 149.579 77.8698C150.31 77.654 150.823 77.4186 151.12 77.1637C151.455 76.8204 151.732 76.2025 151.949 75.3199C152.157 74.6922 152.354 73.3584 152.542 71.3185H128.918C126.992 71.3185 125.373 71.3087 124.059 71.2793C122.765 71.2597 121.748 71.2008 121.017 71.1224C118.933 70.7301 117.59 69.9847 116.988 68.8863C116.563 68.1311 116.356 67.1112 116.356 65.8264C116.356 65.493 116.366 65.1497 116.395 64.8065C116.445 64.473 116.474 64.1298 116.474 63.7865C116.603 63.1588 116.721 62.2958 116.83 61.1974C116.928 60.0794 117.087 58.6867 117.304 57.0391C117.511 55.8916 117.748 54.3617 118.015 52.4493C118.272 50.5467 118.578 48.291 118.923 45.7019C119.21 43.9562 119.477 42.1909 119.714 40.4059C119.951 38.6308 120.168 36.8949 120.385 35.1885ZM138.676 35.1885C137.382 35.1885 136.592 35.2277 136.305 35.3062C135.831 35.3062 135.486 35.4827 135.278 35.8161C135.219 35.8946 135.051 36.3065 134.765 37.0322C134.765 37.3265 134.656 37.9737 134.449 38.9937L133.224 47.6633L131.999 57.0391H150.685C151.238 57.0391 151.692 57.0293 152.068 56.9999C152.463 56.9803 152.759 56.9606 152.976 56.9606C153.579 56.8037 153.944 56.6664 154.083 56.5291C154.369 56.4016 154.537 56.127 154.596 55.7053C154.754 55.4994 154.853 55.1953 154.912 54.803C154.991 54.3911 155.05 53.9008 155.11 53.3516L157.677 35.1885H138.676Z" fill="#EE3EC9"/>
<path d="M195.842 20.9091H218.241C220.078 20.9091 221.619 20.9091 222.863 20.9091C224.098 20.9091 225.016 20.9483 225.629 21.0267C227.89 21.0856 229.441 21.4877 230.29 22.2428C231.238 22.9294 231.713 24.322 231.713 26.4404C231.713 26.7052 231.713 27.0288 231.713 27.4211C231.713 27.7938 231.673 28.1665 231.594 28.5587C231.535 29.1864 231.436 30.0494 231.278 31.1479C231.14 32.2267 230.982 33.5703 230.804 35.1885L230.172 38.9937C229.619 43.1324 229.164 45.849 228.829 47.1534C228.404 49.0658 227.762 50.4486 226.893 51.3116C225.915 52.2041 224.444 52.7925 222.468 53.077C221.145 53.2633 218.676 53.3516 215.042 53.3516H191.931C191.665 53.3516 191.388 53.4987 191.102 53.7831C190.964 53.9204 190.835 54.3225 190.707 54.9992C190.707 55.3424 190.598 56.0191 190.391 57.0391H212.987C217.037 57.0391 219.624 57.147 220.73 57.3529C222.36 57.5687 223.476 58.0787 224.088 58.8829C224.849 59.6478 225.293 61.1385 225.431 63.355C225.56 63.9827 225.629 64.8359 225.629 65.9049C225.629 66.9543 225.629 68.2194 225.629 69.7101V71.4362H186.796C184.742 71.4362 183.043 71.3872 181.7 71.2793C180.357 71.1812 179.31 71.1028 178.579 71.0439C177.127 70.632 176.1 69.9749 175.498 69.0825C175.073 68.2783 174.865 67.2191 174.865 65.9049V65.1203C174.944 63.8944 175.241 61.1974 175.774 57.0391L178.855 35.1885L180.12 27.8526C180.594 25.4793 181.305 23.8022 182.253 22.8313C183.359 21.8898 184.801 21.321 186.598 21.1052C187.329 20.9777 188.465 20.9091 189.996 20.9091C191.546 20.9091 193.492 20.9091 195.842 20.9091ZM196.04 35.1885C195.013 35.1885 194.43 35.2277 194.302 35.3062C194.163 35.365 193.956 35.5317 193.67 35.8161C193.531 36.0809 193.403 36.385 193.275 36.7184C193.275 37.0126 193.166 37.7678 192.959 38.9937H214.251C214.775 38.9152 215.18 38.7485 215.476 38.4837C215.684 38.2778 215.792 37.9639 215.792 37.5422C215.921 37.0715 216.009 36.2869 216.069 35.1885H196.04Z" fill="#EE3EC9"/>
<path d="M237.261 35.3062C237.548 33.3251 237.785 31.6971 237.972 30.4417C238.18 29.1864 238.328 28.2645 238.407 27.6565C238.802 25.5381 239.375 24.0768 240.145 23.2628C240.955 22.1154 242.328 21.4387 244.254 21.2229C245.617 21.0169 247.779 20.9091 250.732 20.9091H279.61C280.578 20.9091 281.427 20.9091 282.139 20.9091C282.85 20.9091 283.442 20.9483 283.916 21.0267C286.049 21.0856 287.561 21.4485 288.459 22.1252C289.486 22.8117 290 24.273 290 26.5188C290 27.882 289.694 30.8144 289.091 35.3062L288.578 38.9937L286.484 53.3516L285.97 57.1568C285.704 59.2556 285.457 61.0012 285.22 62.4135C284.983 63.8061 284.756 64.8359 284.548 65.5126C284.124 67.0033 283.61 68.1998 283.008 69.0825C282.188 69.9749 280.924 70.632 279.215 71.0439C278.524 71.1028 277.358 71.1812 275.699 71.2793C274.06 71.3872 271.946 71.4362 269.339 71.4362L271.393 57.1568L271.907 53.3516L273.961 38.9937L274.475 35.3062H255.671C255.374 35.2277 255.127 35.1885 254.92 35.1885C254.732 35.1885 254.535 35.1885 254.327 35.1885C253.853 35.1885 253.547 35.2277 253.419 35.3062C252.915 35.3062 252.569 35.414 252.392 35.62C252.095 35.8848 251.848 36.2869 251.641 36.8361C251.641 37.1009 251.542 37.8168 251.365 38.9937L249.31 53.3516L248.797 57.1568C248.293 60.7659 247.868 63.2569 247.533 64.6103C247.345 65.6891 247.068 66.6012 246.703 67.3564C246.357 68.1213 245.992 68.7588 245.597 69.2786C244.698 70.2986 243.118 70.9556 240.856 71.2401C240.165 71.2989 239.138 71.3479 237.775 71.397C236.402 71.4264 234.733 71.4362 232.758 71.4362H228.017C229.39 70.2887 230.249 69.5434 230.585 69.2001C231.395 68.5234 231.948 67.9742 232.244 67.5525C232.373 67.3466 232.462 67.1602 232.521 67.0033C232.6 66.8268 232.679 66.6404 232.758 66.4541C232.886 66.0912 233.015 65.3753 233.153 64.2965L234.18 57.1568L234.694 53.3516L236.748 38.9937L237.261 35.3062Z" fill="#EE3EC9"/>
<path d="M47.5868 97.4728H86.2617C85.9654 99.5127 85.7086 101.219 85.4716 102.573C85.2346 103.936 85.0074 104.995 84.8 105.75C84.405 107.712 83.7137 109.104 82.7458 109.908C81.6397 110.879 79.862 111.468 77.4127 111.674C76.7214 111.674 75.7337 111.693 74.4498 111.713C73.1857 111.742 71.566 111.791 69.5908 111.87H51.1817C50.915 111.87 50.6385 111.86 50.3521 111.831C50.0854 111.782 49.8484 111.752 49.641 111.752C49.0287 111.752 48.5842 111.821 48.2978 111.948C47.9028 111.948 47.5966 112.056 47.3892 112.262C47.172 112.478 46.9646 112.89 46.7572 113.518C46.7572 113.861 46.6584 114.537 46.4806 115.557L43.9128 133.721H81.0866C80.82 135.819 80.573 137.585 80.336 139.016C80.099 140.458 79.8718 141.547 79.6644 142.272C79.2398 144.185 78.5188 145.548 77.4917 146.352C76.5436 147.117 75.0424 147.598 72.9882 147.804C72.2968 147.863 71.2697 147.912 69.9068 147.961C68.534 147.99 66.786 148 64.6527 148H41.6216C39.1723 148 37.1576 147.951 35.5774 147.843C33.9972 147.745 32.8219 147.666 32.0615 147.608C30.6393 147.323 29.6122 146.735 28.9801 145.842C28.7628 145.45 28.595 144.969 28.4666 144.391C28.3283 143.822 28.269 143.175 28.269 142.469V141.763C28.3481 141.037 28.4666 139.997 28.6246 138.663C28.8024 137.33 29.0295 135.682 29.2962 133.721C29.5036 132.495 29.7406 130.974 30.0072 129.17C30.2936 127.365 30.5702 125.237 30.8368 122.776C31.1726 120.343 31.4788 118.225 31.7454 116.42C32.0318 114.616 32.2392 113.106 32.3775 111.87C32.7133 109.83 32.9898 108.143 33.2071 106.809C33.4145 105.476 33.5429 104.475 33.6022 103.789C34.1552 101.621 34.8762 100.131 35.7749 99.3166C36.723 98.5124 38.0859 98.0024 39.8834 97.7866C41.3253 97.5807 43.8931 97.4728 47.5868 97.4728Z" fill="#EE3EC9"/>
<path d="M132.525 97.3551C135.527 97.3551 137.641 97.463 138.885 97.6689C140.386 97.8847 141.413 98.2181 141.966 98.6889C142.993 99.3754 143.507 100.807 143.507 103.004C143.507 103.19 143.507 103.387 143.507 103.593C143.507 103.808 143.467 104.083 143.388 104.416C143.388 105.024 143.319 105.936 143.191 107.162C143.053 108.398 142.855 109.928 142.598 111.752L140.939 123.207L139.477 133.603C139.211 136.064 138.924 138.065 138.608 139.605C138.312 141.125 138.026 142.263 137.739 143.018C137.344 144.43 136.653 145.519 135.685 146.274C134.944 146.823 133.809 147.274 132.288 147.608C131.596 147.666 130.431 147.745 128.772 147.843C127.132 147.951 125.029 148 122.451 148H100.131C97.652 148 95.6274 147.951 94.0473 147.843C92.4868 147.745 91.3313 147.666 90.5709 147.608C89.1191 147.274 88.092 146.764 87.4895 146.078C86.9364 145.323 86.6599 144.116 86.6599 142.469V141.88C86.7883 140.448 87.0945 137.683 87.5685 133.603L88.2006 129.837C88.4574 128.013 88.6944 126.483 88.9117 125.247C89.1191 124.021 89.2672 123.089 89.3462 122.462C89.8203 120.088 90.5017 118.46 91.4005 117.597C92.3486 116.636 93.672 116.048 95.3904 115.832C96.8323 115.655 99.4791 115.557 103.331 115.557H124.782C125.197 115.557 125.552 115.548 125.848 115.518C126.164 115.469 126.362 115.44 126.441 115.44C126.777 115.361 127.083 115.195 127.35 114.93C127.557 114.724 127.666 114.42 127.666 114.027C127.794 113.616 127.903 112.851 127.982 111.752H105.385C103.509 111.752 101.948 111.742 100.684 111.713C99.4199 111.693 98.4816 111.634 97.8792 111.556C96.0817 111.301 94.8077 110.683 94.0473 109.712C93.4349 108.771 93.03 107.221 92.8226 105.044C92.8226 104.416 92.8029 103.593 92.7831 102.573C92.7535 101.553 92.7436 100.405 92.7436 99.1204V97.3551H132.525ZM105.148 129.837C104.279 129.837 103.765 129.866 103.607 129.915C103.42 129.915 103.183 130.062 102.896 130.347C102.758 130.484 102.63 130.994 102.501 131.877C102.501 132.22 102.393 132.799 102.185 133.603H122.333C122.747 133.603 123.103 133.593 123.399 133.564C123.715 133.544 123.913 133.524 123.992 133.524C124.387 133.446 124.624 133.309 124.703 133.093C124.831 132.965 124.96 132.622 125.098 132.073C125.226 131.661 125.335 130.916 125.414 129.837H105.148Z" fill="#EE3EC9"/>
<path d="M150.203 111.752C150.539 109.791 150.805 108.173 150.993 106.888C151.201 105.583 151.349 104.632 151.428 104.024C151.981 101.7 152.702 100.131 153.6 99.3165C154.41 98.5123 155.576 98.0024 157.077 97.7866C157.837 97.6591 158.825 97.5512 160.04 97.4728C161.274 97.3943 162.785 97.3551 164.583 97.3551H204.048C203.781 99.4735 203.534 101.239 203.297 102.651C203.06 104.044 202.833 105.103 202.626 105.829C202.072 107.868 201.302 109.271 200.334 110.026C199.86 110.448 199.238 110.771 198.478 111.007C197.737 111.242 196.818 111.429 195.712 111.556C195.021 111.634 193.994 111.693 192.631 111.713C191.258 111.742 189.48 111.752 187.298 111.752H169.837C169.066 111.752 168.424 111.752 167.901 111.752C167.397 111.752 167.012 111.791 166.755 111.87C166.202 111.87 165.709 112.007 165.294 112.262C165.076 112.478 164.879 112.89 164.701 113.517C164.622 113.655 164.543 113.929 164.464 114.341C164.405 114.734 164.316 115.273 164.188 115.95L161.699 133.603C161.432 135.643 161.195 137.349 160.988 138.703C160.77 140.066 160.563 141.125 160.356 141.88C159.961 143.508 159.447 144.734 158.815 145.568C157.995 146.431 156.8 147.078 155.22 147.49C154.746 147.568 154.094 147.647 153.284 147.725C152.465 147.784 151.507 147.833 150.401 147.882C149.926 147.882 149.304 147.912 148.544 147.961C147.773 147.99 146.816 148 145.66 148H141.354C142.124 147.245 142.717 146.656 143.132 146.235C143.527 145.793 143.833 145.43 144.04 145.136C144.909 144.254 145.423 143.567 145.581 143.096C145.709 142.89 145.788 142.665 145.818 142.429C145.838 142.194 145.897 141.949 145.976 141.684C146.104 141.272 146.213 140.507 146.292 139.409L150.203 111.752Z" fill="#EE3EC9"/>
<path d="M249.822 85.3118C250 84.0369 250.306 82.9483 250.731 82.0558C251.333 80.7024 252.153 79.6825 253.18 78.9959C254.069 78.3192 255.076 77.8485 256.182 77.5837C256.785 77.3777 257.427 77.211 258.118 77.0737C258.799 76.9168 259.52 76.8187 260.291 76.7599C260.844 76.6814 261.416 76.6324 262.029 76.603C262.661 76.5834 263.313 76.5637 264.004 76.5637H268.903C267.816 77.5837 267.006 78.2898 266.453 78.6821C266.187 78.9763 265.95 79.2215 265.742 79.4275C265.525 79.6138 265.357 79.8099 265.229 80.0159C264.932 80.3592 264.695 80.8005 264.518 81.3497C264.518 81.6929 264.409 82.2716 264.202 83.0758L262.345 97.4729L257.802 129.837L257.288 133.603C257.101 135.388 256.903 136.888 256.696 138.114C256.478 139.321 256.311 140.233 256.182 140.86C255.757 143.038 255.175 144.607 254.444 145.568C253.545 146.774 251.758 147.519 249.071 147.804C248.38 147.863 247.353 147.912 245.99 147.961C244.617 147.99 242.909 148 240.854 148H217.744C216.026 148 214.584 147.99 213.399 147.961C212.233 147.912 211.354 147.882 210.752 147.882C207.592 147.706 205.666 146.892 204.984 145.45C204.639 144.646 204.471 143.646 204.471 142.469C204.471 142.135 204.481 141.821 204.51 141.527C204.56 141.213 204.589 140.89 204.589 140.546C204.718 139.272 205.024 136.957 205.498 133.603C205.705 132.25 205.942 130.602 206.209 128.66C206.495 126.728 206.811 124.492 207.157 121.952C207.552 119.392 207.868 117.274 208.105 115.597C208.342 113.929 208.5 112.645 208.579 111.752C209.132 107.751 209.537 105.181 209.804 104.024C210.357 101.7 211.078 100.131 211.977 99.3166C212.786 98.5124 214.12 98.0025 215.967 97.7867C217.408 97.5807 220.016 97.4729 223.788 97.4729H247.728L249.822 85.3118ZM227.383 111.752C227.166 111.752 226.89 111.752 226.554 111.752C226.208 111.752 225.774 111.792 225.25 111.87C224.746 111.87 224.43 111.899 224.302 111.948C224.085 111.948 223.848 112.096 223.591 112.38C223.374 112.596 223.166 112.998 222.959 113.596C222.959 113.89 222.86 114.538 222.682 115.558L220.114 133.603H240.775C241.506 133.475 241.98 133.279 242.198 133.014C242.405 132.809 242.573 132.455 242.711 131.955C242.839 131.779 242.928 131.504 242.988 131.131C243.067 130.739 243.146 130.308 243.225 129.837L245.674 111.752H227.383Z" fill="#EE3EC9"/>
</svg>
